/* XPM */
static char *graphic[] = {
"24 24 80 2",
".. c #FFFFFFFFFFFF",
"., c #FEFFFEFFFEFF",
".- c #DFDBDFDBDFDB",
".* c #C6DBC6DBC6DB",
".a c #829282928292",
".b c #382438243824",
".c c #000000000000",
".d c #EEFFEEFFEEFF",
".e c #B1B6B1B6B1B6",
".f c #909290929092",
".g c #6A6D6A6D6A6D",
".h c #4C494C494C49",
".i c #4B494B494B49",
".j c #636D636D636D",
".k c #C1DBC1DBC1DB",
".l c #E8FFE8FFE8FF",
".m c #FCFFFCFFFCFF",
".n c #D0DBD0DBD0DB",
".o c #7A6D7A6D7A6D",
".p c #514951495149",
".q c #3E243E243E24",
".r c #5D495D495D49",
".s c #7F6D7F6D7F6D",
".t c #9A929A929A92",
".u c #D9DBD9DBD9DB",
".v c #FDFFFDFFFDFF",
".w c #E2FFE2FFE2FF",
".x c #CFDBCFDBCFDB",
".y c #9D929D929D92",
".z c #332433243324",
".A c #372437243724",
".B c #849284928492",
".C c #BEB6BEB6BEB6",
".D c #D8DBD8DBD8DB",
".E c #F4FFF4FFF4FF",
".F c #AFB6AFB6AFB6",
".G c #8E928E928E92",
".H c #666D666D666D",
".I c #484948494849",
".J c #B3B6B3B6B3B6",
".K c #E4FFE4FFE4FF",
".L c #534953495349",
".M c #3F243F243F24",
".N c #616D616D616D",
".O c #252425242524",
".P c #424942494249",
".Q c #F1FFF1FFF1FF",
".R c #F0FFF0FFF0FF",
".S c #F8FFF8FFF8FF",
".T c #F5FFF5FFF5FF",
".U c #DBDBDBDBDBDB",
".V c #DDDBDDDBDDDB",
".W c #DCDBDCDBDCDB",
".X c #EFFFEFFFEFFF",
".Y c #D5DBD5DBD5DB",
".Z c #5E495E495E49",
".0 c #656D656D656D",
".1 c #B2B6B2B6B2B6",
".2 c #F6FFF6FFF6FF",
".3 c #474947494749",
".4 c #B0B6B0B6B0B6",
".5 c #C9DBC9DBC9DB",
".6 c #B8B6B8B6B8B6",
".7 c #554955495549",
".8 c #ADB6ADB6ADB6",
".9 c #494949494949",
".@ c #BCB6BCB6BCB6",
".# c #2E242E242E24",
".; c #E7FFE7FFE7FF",
".: c #352435243524",
".= c #D7DBD7DBD7DB",
".+ c #362436243624",
".% c #DADBDADBDADB",
".$ c #5A495A495A49",
".( c #A5B6A5B6A5B6",
".) c #C0DBC0DBC0DB",
".[ c #584958495849",
".] c #ABB6ABB6ABB6",
",. c #756D756D756D",
",, c #A6B6A6B6A6B6",
"...........K.O.Y.........V...........V..........",
"...........B.P.Z.........V...........V..........",
"...........L.J.0.F.......V...........V..........",
".........d.M.K.1.j.T.....V...........V..........",
".........F.N.Q.2.3.5.....V...........V..........",
".........G.a.R...4.i.....W...........W..........",
".......v.H.t.S.....h.C...X...........X..........",
".......w.I.u.......6.p..........................",
".......x.I...T.....2.7.4.............E..........",
".......y.r...U.......8.H.X...........%..........",
".......p.J...V.......E.9.@...........X..........",
".....m.z.d...V.........6.#.:.:.:.:.+.$..........",
".....n.A.....V...........*.u.D.D.=.-.M.)........",
".....o.B.....V...........;...........(.p........",
".....p.C.....W...........U...........Q.[.4......",
"...d.q.D.....X...........X...........m.8.j.T....",
"...e.r.E...............................E.3.5....",
"...f.s.......E...........E...........E...4.i....",
".,.g.t.......U...........U...........U.....h.C..",
".-.h.u.......V...........V...........V.....6.p..",
".*.i.........V...........V...........V.....2.7.J",
".a.j.........V...........V...........V.......],.",
".b.k.........V...........V...........V.......E.[",
".c.l.........V...........V...........V........,,"
};
