/* XPM */
static char *tasiohostbasic[] = {
"16 16 10 1",
". c None",
", c #809280928092",
"- c #FFFF00000000",
"* c #809280920000",
"a c #C0DBC0DBC0DB",
"b c #000000000000",
"c c #FFFFFFFFFFFF",
"d c #000000008092",
"e c #000080928092",
"f c #000080920000",
"................",
"................",
"................",
"................",
"................",
".,,,,,,,,,,,d,,,",
",*abaabb,b,,,b,,",
"--,b,cb,,b,babef",
",-b,babb,bab,b,,",
",,,c,,,,,ba,d,,a",
".,,,,,,,,,,,,,,,",
"................",
"................",
"................",
"................",
"................"
};
