/* XPM */
static char *tasiohost[] = {
"48 48 180 2",
".. c None",
"., c #E7FFA2B69D92",
".- c #D4DBD5DBD5DB",
".* c #D5DBD5DBDADB",
".a c #E2FF27242824",
".b c #F6FF93929192",
".c c #D9DBDADBD6DB",
".d c #E1FFE1FFE2FF",
".e c #7D6D7E6D7E6D",
".f c #859285928592",
".g c #859284928B92",
".h c #9B9247493D24",
".i c #E9FF15001700",
".j c #F5FF0B000500",
".k c #EBFF0A000600",
".l c #B6B632243124",
".m c #86927C6D7A6D",
".n c #89928A928A92",
".o c #7A6D7A6D7C6D",
".p c #969299929892",
".q c #8E928E928D92",
".r c #9B929C929C92",
".s c #9B9292928E92",
".t c #F9FF0C000400",
".u c #CADB2E242B24",
".v c #929285927E6D",
".w c #9A929A929A92",
".x c #8B928B928C92",
".y c #919291929192",
".z c #9F92A0B69C92",
".A c #8D924A494949",
".B c #AAB618001400",
".C c #D8DB11000D00",
".D c #939293929492",
".E c #8D928C929292",
".F c #90928F929792",
".G c #A3B6A4B6A3B6",
".H c #929284928492",
".I c #869282927D6D",
".J c #726D726D746D",
".K c #6D6D6D6D736D",
".L c #959294929A92",
".M c #A9B6A9B6A7B6",
".N c #ABB6ACB6ABB6",
".O c #B1B6B1B6B1B6",
".P c #ADB6ADB6ADB6",
".Q c #B6B6B6B6B6B6",
".R c #ADB6ADB6B2B6",
".S c #53495349636D",
".T c #150014003324",
".U c #2C242C244449",
".V c #959296929592",
".W c #7C6D7C6D8292",
".X c #40493C245349",
".Y c #100010002C24",
".Z c #030002002224",
".0 c #20241E003624",
".1 c #656D646D6B6D",
".2 c #B3B6B3B6B4B6",
".3 c #B7B6B8B6B8B6",
".4 c #9D929C92A3B6",
".5 c #6D6D6C6D7C6D",
".6 c #0A0009002524",
".7 c #090006002524",
".8 c #2B242A243B24",
".9 c #A2B6A2B6A2B6",
".@ c #AFB6B0B6ACB6",
".# c #B1B6B2B6ADB6",
".; c #AAB6AAB6AAB6",
".: c #1C001C003324",
".= c #484947495749",
".+ c #5C495C496B6D",
".% c #C3DBC3DBC3DB",
".$ c #B9B6B9B6BAB6",
".( c #A6B6A6B6A6B6",
".) c #656D656D756D",
".[ c #1B001A002D24",
".] c #756D746D8292",
",. c #B7B6B7B6B9B6",
",, c #D1DBD1DBD1DB",
",- c #BFB6C0DBBBB6",
",* c #BBB6BCB6BBB6",
",a c #130012002624",
",b c #444943495449",
",c c #090006002B24",
",d c #372436244849",
",e c #C7DBC8DBC7DB",
",f c #C1DBC2DBBEB6",
",g c #BDB6BDB6BDB6",
",h c #11000E002924",
",i c #030002001D00",
",j c #050003002524",
",k c #4C494C495C49",
",l c #CDDBCDDBCEDB",
",m c #342433244449",
",n c #030002002524",
",o c #BAB6BAB6B6B6",
",p c #D6DBD8DBD5DB",
",q c #DCDBDCDBDCDB",
",r c #D9DBDADBD9DB",
",s c #CCDBCCDBCBDB",
",t c #31242F244749",
",u c #0B000B002B24",
",v c #DBDBDBDBE2FF",
",w c #CADBCADBCADB",
",x c #989297929C92",
",y c #CFDBD1DBD2DB",
",z c #97929792A5B6",
",A c #B3B6B3B6BAB6",
",B c #869287929792",
",C c #7A6D796D8692",
",D c #4B494A49656D",
",E c #80927F6D9C92",
",F c #B5B6B7B6C5DB",
",G c #060005002624",
",H c #242423243B24",
",I c #696D686D8492",
",J c #5F495F49756D",
",K c #97929692B8B6",
",L c #B9B6B9B6D9DB",
",M c #C6DBC8DBD5DB",
",N c #56495649686D",
",O c #89928892A6B6",
",P c #A1B69C92B9B6",
",Q c #C0DBBEB6CADB",
",R c #A4B6A4B6ABB6",
",S c #C5DBC5DBCADB",
",T c #292427244649",
",U c #C9DBCADBC3DB",
",V c #140013002C24",
",W c #C9DBCADBC6DB",
",X c #7E6D82928492",
",Y c #51494F495B49",
",Z c #D2DBD2DBCEDB",
",0 c #544955495B49",
",1 c #060005002124",
",2 c #A1B6A3B69E92",
",3 c #636D636D646D",
",4 c #5B495B49646D",
",5 c #3C243C244C49",
",6 c #222423243424",
",7 c #3F243F244D49",
",8 c #8E9293929392",
",9 c #332433243C24",
",@ c #82927F6D8492",
",# c #746D736D7B6D",
",; c #829282928292",
",: c #839284928392",
",= c #0C000B002324",
",+ c #776D796D7A6D",
",% c #899289928692",
",$ c #090005002224",
",( c #180017002B24",
",) c #050005001E00",
",[ c #4D4951495749",
",] c #8E9290928D92",
"-. c #040003001C00",
"-, c #899286928592",
"-- c #454946494D49",
"-* c #6C6D756D6B6D",
"-a c #5449736D5649",
"-b c #5949676D5949",
"-c c #7C6D80927B6D",
"-d c #4749766D4749",
"-e c #1C0099922624",
"-f c #1C00A4B62424",
"-g c #3E24776D4249",
"-h c #1D009F921F00",
"-i c #1B00A6B61E00",
"-j c #1B00A8B62624",
"-k c #3C248B924249",
"-l c #6D6D6D6D6D6D",
"-m c #6A6D6A6D6B6D",
"-n c #4449656D4649",
"-o c #31248E923524",
"-p c #23249D922824",
"-q c #5D49646D646D",
"-r c #6E6DBAB66E6D",
"-s c #3124A3B63924",
"-t c #ABB6D4DBACB6",
"................................................................................................",
"................................................................................................",
"................................................................................................",
"................................................................................................",
"................................................................................................",
"................................................................................................",
"................................................................................................",
"................................................................................................",
"................................................................................................",
"................................................................................................",
"................................................................................................",
"................................................................................................",
"................................................................................................",
"................................................................................................",
"................................................................................................",
"................................................................................................",
"...-.e.q.y.D.L.w.r.9.(.N.N.O.O.2.Q.$,*,..O.2.2.O.;.;.(.G.r.w.p.D.q.y.E.n,@,;,:,;.e.e.o,+.o,+.J,r",
"...-.f.r.z.G.M.N.2.;.).1.4,l,l,,.-,l.L,N.X.=.o.Q,s,x,0,Y.o.P.N.(.4.o,k,m,9,m.=.1,;,%,%.f,;,;.J,p",
"...-.g.s.A.H.N.P.3.x.[,a.+,l,,.-,y,C,H,t,k,H,V.n,,.g,V,h.1.O.N.9,4.[,V,5,k.8,=.[.=.o.f-*-d.J,+,p",
"...*.f.l.B.I.O.O.Q.5.X,b.+.%,p,r.2.),I.%,r,g.W.2,Z,x.=.X,X.2.(.1,d,b.o.V.V.n,4.8.U,0,@-a-e-d-m,p",
"...*.h.t.B.H.O.Q.4.0.:,c,h.r,q,q,z,D,J,A.d,q.%,w,,.g,1,j.1.$.W.6,n,7.D.p.y.V,+,V,i,h,4-a-f-h-n.*",
"...,.i.t.C.H.P.Q.5.:.].T.Z.1,r,v,A,E,K,O,R,S,q.-,,.g,j.Z.1,o,k,i,1,4.r.p.D.y,%.8,i.Z,b-a-f-i-o,Z",
".,.a.j.t.C.H.O.P.U.X,.,d,i,m,s,q.-,F,L,P,I,k.F,y.-.g,G.Z.1.O,m,i,u.K.r.p.D.y.x,m,i,i,d-a-f-j-i-r",
".,.a.j.t.C.H.Q.W.6.W,,.).Z.Y.;,q,r.*,M,K,J,t.T,X,p.g,j.Z,3.O.U,i,c.K.r.p.D.y.x,d-.,i,d-a-e-j-i-s",
"...b.k.t.C.H.R.X.7.=.+.X,j,n.5,q,q,q,r,Q.5,T,u,d,e.E,G.Z,4.Q,5,i.6.1.r.p.D.y.q.8,i,)---a-e-j-p-t",
"...c.l.t.C.s.F.Y.8.+.+.+.T,n,t,w,p,s,q,q,w,b,n,t.%.E,G.Z,4.$.1.Z.Z,Y.r.w.D.D.o,(,i,h.+-a-e-f-g,p",
"...-.m.u.C.H.S.Z.W.%.%,e,k.Z,u,x.R.S,w.d,q.S.Z,Y,s.n,1.Z.S.2,x,6,i,H.n.r.p.y,b,)-.,d.o-a-e-k-q.-",
"...-.n.v.h.J.T.0.9.$,-,e.].Z,i.S,B,G.X,C,J.Y,H.r,Z.g,i,i.S.@.P.W.0,i,9.J,#,b,$,1,9.K.n-b-g-l.K.-",
"...-.f.w.D.K.U.1.@.Q,*,f.G,d.U,k.L.=,H.0,H,k.r,e,e.E,t.U.1.N.M.(.q.S,H.:.:,V.8,[,+.f,:-c,+.e.J.-",
"...-.f.w.r.r.z.M.#.2.3,g,-,o,o,-,w,w,g.2,.,U,W.%,f.3.@.P.;.;.(,2.z.r.D,X.o.e,:,%.n-,,:,:,:,;.J.-",
"...-.o.x.E.y.V.p.w.4.9.(.M.P.O.2.2.2,.,..Q.2.O.P.;.(.(,2.r.p.V.y.E.x.n.n.f.f.e.e.e.e,+.o,+,+-m.-",
"...d.p.y.F.D.D.D.D.V.p.p.L.p.p.w.r.w.w.w.r.w.w,x,x.L.p.V.V.V.D.D.V,8,8.F,8.y.y,],].q.y.y.y.q.q.d",
"................................................................................................",
"................................................................................................",
"................................................................................................",
"................................................................................................",
"................................................................................................",
"................................................................................................",
"................................................................................................",
"................................................................................................",
"................................................................................................",
"................................................................................................",
"................................................................................................",
"................................................................................................",
"................................................................................................",
"................................................................................................",
"................................................................................................",
"................................................................................................"
};
