/* XPM */
static char *tfrequencybarchart[] = {
"24 24 129 2",
".. c #000000000000",
"., c #D6DBDBDBD3DB",
".- c #ABB6776D726D",
".* c #B6B699929592",
".a c #CDDBAEB6A8B6",
".b c #AAB66C6D686D",
".c c #9E925D495A49",
".d c #A4B6646D606D",
".e c #9B9259495649",
".f c #9C924B494849",
".g c #86920D000D00",
".h c #8E921A001A00",
".i c #8A9216001500",
".j c #8E921A001900",
".k c #839207000600",
".l c #8D9213001400",
".m c #949227242624",
".n c #939224242324",
".o c #949226242524",
".p c #8A920D000C00",
".q c #A5B65E495B49",
".r c #9C923F243E24",
".s c #96923D243B24",
".t c #9D9244494249",
".u c #999241493E24",
".v c #9D9247494549",
".w c #9A9244494249",
".x c #979231242F24",
".y c #859205000600",
".z c #8C9215001300",
".A c #899206000600",
".B c #929220241F00",
".C c #969225242624",
".D c #CBDB7D6D776D",
".E c #929224242424",
".F c #8E921C001B00",
".G c #85920B000B00",
".H c #B1B632243024",
".I c #A2B60E000D00",
".J c #ABB61A001A00",
".K c #ACB61D001C00",
".L c #AAB61C001A00",
".M c #AEB625242324",
".N c #ADB623242224",
".O c #AFB627242524",
".P c #A9B614001400",
".Q c #A5B61C001C00",
".R c #A5B621242024",
".S c #A6B624242224",
".T c #A6B622242124",
".U c #9F920C000C00",
".V c #989238243624",
".W c #9E924A494649",
".X c #A7B65B495749",
".Y c #A0B654495249",
".Z c #8D9217001600",
".0 c #8B921C001B00",
".1 c #8E921E001D00",
".2 c #8E9222242224",
".3 c #8D9224242124",
".4 c #8F9225242324",
".5 c #8C9224242324",
".6 c #9D9250494D49",
".7 c #909216001500",
".8 c #90921D001B00",
".9 c #959222242224",
".@ c #959227242624",
".# c #939226242524",
".; c #969229242724",
".: c #8A920F000F00",
".= c #939225242424",
".+ c #949228242724",
".% c #939227242524",
".$ c #94922A242924",
".( c #939229242624",
".) c #869213001200",
".[ c #889215001300",
".] c #8A921A001A00",
",. c #8F921A001900",
",, c #90921C001B00",
",- c #91921D001D00",
",* c #8B9210000F00",
",a c #929234243324",
",b c #929238243624",
",c c #9A924D494A49",
",d c #869215001500",
",e c #B3B613001300",
",f c #9F924D494A49",
",g c #9F9226242424",
",h c #9C9205000500",
",i c #939222242124",
",j c #90921B001900",
",k c #919225242324",
",l c #869213001400",
",m c #7D6D05000400",
",n c #82920E000D00",
",o c #82920B000B00",
",p c #839210001000",
",q c #87920C000A00",
",r c #8A9212001100",
",s c #8E9218001700",
",t c #949227242524",
",u c #AAB6646D616D",
",v c #949228242824",
",w c #859210000F00",
",x c #8D9225242424",
",y c #8D9226242424",
",z c #A7B651494F49",
",A c #A2B602000200",
",B c #A2B608000800",
",C c #A3B60A000A00",
",D c #A4B60C000C00",
",E c #A6B611000F00",
",F c #A8B614001100",
",G c #AEB620241F00",
",H c #B2B626242524",
",I c #B0B624242324",
",J c #B2B625242424",
",K c #AAB60E000E00",
",L c #ACB634243324",
",M c #A7B628242724",
",N c #A9B62A242924",
",O c #A7B629242824",
",P c #A9B62B242A24",
",Q c #A0B616001500",
",R c #9992626D5D49",
",S c #8F9230242E24",
",T c #8F9229242824",
",U c #8E9228242624",
"...,.b.,.,.,.,.,.,.*.,.,.,.,.,,f.,.,.,.*.a,z.,..",
".,.a.c.,.,.,.,.,.a.V.,.,.,.,.,,c.,.6.,,u.*,A.a.,",
".,.a.c.,.q.,.,.,.a.W.,.a.a.,.,.Y.*,m.,,u.*,B.a.,",
".,.,.d.,.r.,.,.,.,.X.-.*.-.,.,.X.a,n.,.b.a,C.a.,",
".,.a.e.,.s.,.a.,.a.Y.-.*.-.,.,.Y.*,o.,.d.*,B.a.,",
".,.,.d.,.t.,.,.,.,.X.-.*.-.,.,.X.a,n.,.b.a,C.a.,",
".,.a.c.,.u.,.,.,.,.q.-.*.-.,.,.Y.*,p.,.b.a,B.a.,",
".,.a.c.,.u.,.,.a.a.V.6.*.-.,.,.Y.a.k.-.b.*,B.a.,",
".,.,.d.,.v.,.,.D.a.Z.7.a.-.,.,.q.a,q.d.-.a,D.a.*",
".-.a.c.,.s.,.,.D.a.0.8.*.-.,.,.u,i,r.d.-.*,D.a,R",
".*.,.d.,.t.,.,.D.a.F.9.*.-.,.,,f.j,s.b.D.*,E.a,S",
".*.a.d.,.u.,.,.H.a.1.B.1.0.a.,.W.h,s.d.D.k,F.a,b",
".*.a.c.,.w.,.a.I.a.2.n.=.).a.,.v,j,s.d.D.g,G,L.5",
".,.,.d.,.x.,.,.J.Q.1.@.+.i.,.,,f,,,..b.*,w,H,M,T",
".,.a.e.,.y.-.,.J.R.3.#.%.[.a.,.v.h.F,f,u,d,I,M,U",
".,.,.b.,.z.D.,.K.S.4.@.+.].,.,,f,,,t.B,-.5,J,N,T",
".,.,.f.-.A.D.,.L.T.4.@.+.Z.f.,.W,..o.o.m,x,I,O,T",
".,.,.g.l.p.D.,.J.R.5.o.+,.,a.,.v,..=.#.%.5,I,M,U",
".,.,.h.m.B.E.a.M.S.4.@.$,,.s.,,f,,,t.m.m,y,J,N,T",
".,.,.i.n.n.i.a.N.R.5.o.(,.,b.,,c.j.=.=.%.5,I,M,U",
".,.,.j.o.C.F.a.O.S.4.;.$,-,c.,,g,k,t.m,v,y,J,P,T",
".,.,.k.p.p.G.*.P.U.G.:.i,*,d,e,h,l,r,r,*,o,K,Q.)",
".,.,.a.a.*.a.a.a.a.a.a.*.a.a.*.a.a.a.*.a.a.a.a.a",
"...,.,.,.,.,.,.,.,.,.,.,.*.*.*.,.,.,.,.,.,.,.,.."
};
