/* XPM */
static char *graphic[] = {
"24 24 41 1",
". c #9B929B929B92",
", c #979297929792",
"- c #000000000000",
"* c #F7FFF7FFF7FF",
"a c #FFFFFFFFFFFF",
"b c #F1FFF1FFF1FF",
"c c #FAFFFAFFFAFF",
"d c #3A243A243A24",
"e c #919291929192",
"f c #E4FFE4FFE4FF",
"g c #DBDBDBDBDBDB",
"h c #8A928A928A92",
"i c #180018001800",
"j c #796D796D796D",
"k c #E0FFE0FFE0FF",
"l c #8C928C928C92",
"m c #EDFFEDFFEDFF",
"n c #E6FFE6FFE6FF",
"o c #F3FFF3FFF3FF",
"p c #FBFFFBFFFBFF",
"q c #859285928592",
"r c #BFB6BFB6BFB6",
"s c #584958495849",
"t c #C9DBC9DBC9DB",
"u c #C7DBC7DBC7DB",
"v c #120012001200",
"w c #0A000A000A00",
"x c #FEFFFEFFFEFF",
"y c #B8B6B8B6B8B6",
"z c #C4DBC4DBC4DB",
"A c #C0DBC0DBC0DB",
"B c #DEDBDEDBDEDB",
"C c #D7DBD7DBD7DB",
"D c #D5DBD5DBD5DB",
"E c #D9DBD9DBD9DB",
"F c #869286928692",
"G c #716D716D716D",
"H c #B2B6B2B6B2B6",
"I c #849284928492",
"J c #AFB6AFB6AFB6",
"K c #B7B6B7B6B7B6",
".*bd-ikpq-vypCD*G-wJprw-",
".acd-imal-vzakBaG-wyauw-",
".a*d-imal-vAakgaG-wKauw-",
".a*d-imal-vAakgaG-wKauw-",
".a*d-imal-vAakgaG-wKauw-",
".a*d-imal-vAakgaG-wKauw-",
".a*d-imal-vAakgaG-wKauw-",
",a*d-imal-vAakgaG-wKauw-",
".a*d-imal-vAakgaG-wKauw-",
".a*d-imal-vAakgaG-wKauw-",
".a*d-imal-vAakgaG-wKauw-",
".a*d-imal-vAakgaG-wKauw-",
".a*d-imal-vAakgaG-wKauw-",
".a*d-inaq-wrakgaG-wKaz--",
".ace-joarsjBakgaHG-DaBG-",
",aaaffaaatxaakEaaaDmaamB",
".aaagkaaau*aakEaaatmaanD",
".aaagkaaau*aakEaaatmaanD",
".aaagkaaau*aakEaaatmaanD",
".aaagkaaau*aakEaaatmaanD",
".aaagkaaau*aakEaaatmaanD",
".aaagkaaau*aakEaaatmaanD",
".aaagkaaau*aakEaaatmaanD",
"-...hl..,j...lF.,.I,..eq"
};
