/* XPM */
static char *TVSTHost[] = {
"32 32 41 1",
". c #000000000000",
", c #939293929392",
"- c #5D495D495D49",
"* c #6B6D6B6D6B6D",
"a c #786D786D786D",
"b c #AEB6AEB6AEB6",
"c c #BBB6BBB6BBB6",
"d c #A1B6A1B6A1B6",
"e c #E4FFE4FFE4FF",
"f c #C9DBC9DBC9DB",
"g c #869286928692",
"h c #999299929992",
"i c #CCDBCCDBCCDB",
"j c #F1FFF1FFF1FF",
"k c #D6DBD6DBD6DB",
"l c #666D666D666D",
"m c #FFFF666D666D",
"n c #FFFF33243324",
"o c #FFFF00000000",
"p c #CCDBCCDBFFFF",
"q c #FFFFCCDBCCDB",
"r c #CCDB666D666D",
"s c #434943494349",
"t c #352435243524",
"u c #999200003324",
"v c #CCDB00000000",
"w c #CCDB33243324",
"x c #999200000000",
"y c #666DCCDB666D",
"z c #33249992666D",
"A c #999233243324",
"B c #CCDBFFFFCCDB",
"C c #000099923324",
"D c #332499923324",
"E c #666D9992666D",
"F c #3324666D3324",
"G c #504950495049",
"H c #332433243324",
"I c #282428242824",
"J c #666DCCDB9992",
"K c #99929992CCDB",
"................................",
"................................",
"................................",
"................................",
"................................",
"................................",
",addddddddddddbbbbbddbddddddddd,",
"-b............efffkejk.........c",
"*b..........eh,feekbhhj........b",
"*beeejej..eed,f....jiiiejeieii.b",
"*bfgg,ce.jkbhiie...eiiefiiiiKd.b",
"*b.fhdf...jiiiiiiijii..ihhj.jh.c",
"*b..iccj..kpjiiiiihhcj.blle..e.b",
"*b...iii..f..jkchhghlge,GGe....b",
"*b...kiieciee...ecg-GH,gttk....b",
"*b...jhhhb.fh......btIaatse....b",
"*b....c*li.cs,.....kssk,l-e....b",
"*b....j*,..bts*ckkcl*ckgaace...b",
"*b.....kj..ii.iiiiii..keieee...b",
"*b.........qqqqq.BBBB..........b",
"-b........monnwrBzzzDJ.........c",
",,fffffiimoooviyzCCCCCyiiffffffg",
".c,,,,,hhnooovizCCCCCCDhh,,,,,,d",
"..........mooonriDCCCzB.........",
"...........ruuxA.EFFFi..........",
"................................",
"................................",
"................................",
"................................",
"................................",
"................................",
"................................"
};
