/* XPM */
static char *tvsthost[] = {
"24 24 168 2",
".. c None",
"., c #C7DBC7DBC7DB",
".- c #636D636D636D",
".* c #716D716D716D",
".a c #736D736D736D",
".b c #706D706D706D",
".c c #656D656D656D",
".d c #C4DBC4DBC4DB",
".e c #BDB6BDB6BDB6",
".f c #DDDBDDDBDDDB",
".g c #C8DBC8DBC8DB",
".h c #DCDBDCDBDCDB",
".i c #DEDBDEDBDEDB",
".j c #D5DBD5DBD5DB",
".k c #9B929B929B92",
".l c #ECFFECFFECFF",
".m c #FFFFFFFFFFFF",
".n c #B5B6B5B6B5B6",
".o c #C6DBC6DBC6DB",
".p c #FCFFFCFFFCFF",
".q c #9F929F929F92",
".r c #E8FFE8FFE8FF",
".s c #B1B6B1B6B1B6",
".t c #819281928192",
".u c #D2DBD2DBD2DB",
".v c #F9FFF9FFF9FF",
".w c #F8FFF8FFF8FF",
".x c #9E929E929E92",
".y c #A8B6A8B6A8B6",
".z c #B8B6B8B6B8B6",
".A c #CCDBCCDBCCDB",
".B c #C1DBC1DBC1DB",
".C c #EDFFEDFFEDFF",
".D c #E0FFE0FFE0FF",
".E c #F3FFF3FFF3FF",
".F c #CADBCADBCADB",
".G c #A0B6A0B6A0B6",
".H c #6A6D6A6D6A6D",
".I c #FEFFFEFFFEFF",
".J c #F9FFFAFFFAFF",
".K c #A0B6A6B6A6B6",
".L c #E7FFE7FFE7FF",
".M c #A5B6A5B6A5B6",
".N c #F9FFFEFFFEFF",
".O c #B6B691929192",
".P c #E9FFE9FFE9FF",
".Q c #EAFFEAFFE6FF",
".R c #FDFFFDFFFDFF",
".S c #FFFF97929792",
".T c #FFFF02000200",
".U c #FFFF90929092",
".V c #C9DBC9DBC5DB",
".W c #D2DBD2DBFCFF",
".X c #EDFFEDFFE9FF",
".Y c #CBDBCEDBCEDB",
".Z c #F8FFEFFFEFFF",
".0 c #FFFF00000000",
".1 c #DDDBB2B6AEB6",
".2 c #EFFFEFFFEFFF",
".3 c #C2DBC2DBC2DB",
".4 c #909290929092",
".5 c #BEB6BEB6BEB6",
".6 c #F7FFF7FFF3FF",
".7 c #1F001F001F00",
".8 c #776D7C6D7C6D",
".9 c #FFFFEBFFEBFF",
".@ c #FFFF15001500",
".# c #F2FF00000000",
".; c #999222245949",
".: c #EBFFEBFFEBFF",
".= c #849284928492",
".+ c #CDDBCDDBCDDB",
".% c #F5FFF5FFF5FF",
".$ c #909295929592",
".( c #FFFFECFFECFF",
".) c #E0FF25242724",
".[ c #CBDB746D7B6D",
".] c #FFFF21242024",
",. c #A0B626243F24",
",, c #D3DBD3DBD3DB",
",- c #C3DBC3DBC3DB",
",* c #F1FFF1FFF1FF",
",a c #C5DBC5DBC5DB",
",b c #E2FFE2FFE2FF",
",c c #F2FFF2FFF2FF",
",d c #ACB6B1B6B1B6",
",e c #FFFFD3DBD7DB",
",f c #BCB65D494F49",
",g c #5849D9DB9192",
",h c #C3DB636D616D",
",i c #A2B637243724",
",j c #B9B6B9B6B9B6",
",k c #D6DBD6DBD6DB",
",l c #B0B6B0B6B0B6",
",m c #FAFFFAFFFAFF",
",n c #CDDBCCDBCDDB",
",o c #FAFFFFFFFCFF",
",p c #8D92E8FFADB6",
",q c #00008A922D24",
",r c #8292BEB69692",
",s c #EEFFEEFFEEFF",
",t c #A4B6A4B6A4B6",
",u c #8B928B928B92",
",v c #C9DBC4DBC9DB",
",w c #DDDBFFFFD6DB",
",x c #0A0086924749",
",y c #000099922B24",
",z c #000094921F00",
",A c #6A6D8D92666D",
",B c #CBDBCBDBCBDB",
",C c #DFDBDFDBDFDB",
",D c #8D928D928D92",
",E c #756D756D756D",
",F c #B4B6B4B6B4B6",
",G c #D7DBD7DBD7DB",
",H c #91928C929192",
",I c #E2FFFFFFDCDB",
",J c #15008C925249",
",K c #000099922E24",
",L c #00009A922B24",
",M c #5949776D5349",
",N c #929292929292",
",O c #4A494A494A49",
",P c #1D001D001D00",
",Q c #2F242F242F24",
",R c #C8DBC4DBC8DB",
",S c #FDFFFFFFFAFF",
",T c #140092922624",
",U c #000096922D24",
",V c #000093922E24",
",W c #786D8D92726D",
",X c #CFDBCFDBCFDB",
",Y c #8C928C928C92",
",Z c #434943494349",
",0 c #E4FFE4FFE4FF",
",1 c #9492DFDBB4B6",
",2 c #07009C922024",
",3 c #5B49BCB6776D",
",4 c #EAFFEAFFEAFF",
",5 c #A3B6A3B6A3B6",
",6 c #AAB6AAB6AAB6",
",7 c #FFFFFCFFFCFF",
",8 c #9392A5B68F92",
",9 c #9D929D929D92",
",@ c #484948494849",
",# c #2B242B242B24",
",; c #1C001C001C00",
",: c #594959495949",
",= c #9C929C929C92",
",+ c #FAFFF9FFFAFF",
",% c #A6B6A3B6A6B6",
",$ c #8A928A928A92",
",( c #999299929992",
",) c #BBB6BBB6BBB6",
",[ c #D1DBD1DBCFDB",
",] c #FCFFFCFFFAFF",
"-. c #D9DBD9DBD9DB",
"-, c #FBFFFBFFFBFF",
"-- c #FAFFFAFFF7FF",
"-* c #9F929F92BAB6",
"-a c #C3DBC3DBCFDB",
"-b c #FFFFFFFFFEFF",
"-c c #E1FFE1FFDEDB",
"-d c #C6DBC6DBC5DB",
"-e c #A1B6A1B6A1B6",
"-f c #B7B6B7B6B7B6",
"-g c #BAB6BAB6BAB6",
"-h c #BCB6BCB6BCB6",
"................................................",
"................................................",
"................................................",
"................................................",
".,.e.g.,.,.,.,.,.,.o.A,,,,,,,B.F.+.o.,.,.,.,.,,a",
".-.,.l.r.r.r.L.L.r.2.:,-,j.B,,.D.h,4.r.r.r.P.C-f",
".*.f.m.m.m.m.m.m.m.3.=.,,c.P.B,N.B.I.m,m.R--.m,)",
".a.g.n.s.d.D.m.P.F.4.e,*.m.m,m.F,X,,,b.+,[-*-c.e",
".*.h.o.t.y.E.m.w.V.5.+.+,k,s,C,k.m.h,9.g,]-a-d.F",
".b.i.m.u.z.i.m.Q.W.6.A,a.5,t,D.n.R.3,@,9.m-b.I-g",
".b.f.m.v.A.F.v.A.X.p.%,b,l,u,E,O,Y,5,#,$.m.m.m-g",
".b.f.m.m.B.G.M.u.h.5.m.m.I.%,F,P,Z.t,;,Y.m.m.m-g",
".b.f.m.m.C.H.a.R.u.7.y,c,m.p,G,Q.M,6,:,(,m.m.m-g",
".b.f.m.m.m.y.u.m.Y.8.$,d,n,v,H,R,0,j,=,)-..m.m-g",
".b.i.m.m.m.I.m.m.Z.9.(,e,o,w,I,S.m.m.p.m-,.m.m-g",
".c.j.p.w.w.J.N.S.0.@.),f,p,x,J,T,1,7,+.v.v.w.I-h",
".d.k.q.x.x.K.O.T.0.#.[,g,q,y,K,U,2,8,%.x.x.x-e,$",
"...............U.0.0.],h,r,z,L,V,3..............",
".................1.;,.,i..,A,M,W................",
"................................................",
"................................................",
"................................................",
"................................................",
"................................................"
};
