/* XPM */
static char *graphic[] = {
"24 24 37 1",
". c None",
", c #222422242224",
"- c #0A000A000A00",
"* c #B1B6B1B6B1B6",
"a c #989298929892",
"b c #594959495949",
"c c #322432243224",
"d c #999299929992",
"e c #969296929692",
"f c #7D6D7D6D7D6D",
"g c #1E001E001E00",
"h c #5B495B495B49",
"i c #5A495A495A49",
"j c #202420242024",
"k c #869286928692",
"l c #C3DBC3DBC3DB",
"m c #120012001200",
"n c #C9DBC9DBC9DB",
"o c #554955495549",
"p c #302430243024",
"q c #312431243124",
"r c #424942494249",
"s c #9B929B929B92",
"t c #949294929492",
"u c #1D001D001D00",
"v c #584958495849",
"w c #564956495649",
"x c #3F243F243F24",
"y c #352435243524",
"z c #9A929A929A92",
"A c #232423242324",
"B c #BAB6BAB6BAB6",
"C c #342434243424",
"D c #5F495F495F49",
"E c #ABB6ABB6ABB6",
"F c #9C929C929C92",
"G c #959295929592",
".................CrC....",
"................yD.Dy...",
"................x...xB..",
"...............Aa...aA..",
"..............aA.....Aa.",
"..............xB.....Bx.",
".............sy.......yF",
".............tz.......zG",
".............u........Eg",
".............v.........h",
"............iw.........b",
"............q...........",
",...........r...........",
"-a.........ej...........",
"*b.........o............",
".c.........p............",
".be.......eb............",
".df.......fa............",
"..g.......g.............",
"..hi.....ih.............",
"...,.....,..............",
"...ih...hi..............",
"....jl.lj...............",
"....kmnmk..............."
};
